<?xml version="1.0" encoding="UTF-8" ?>
<svg version="1.1" width="128" height="128" xmlns="http://www.w3.org/2000/svg" shape-rendering="crispEdges">
<rect x="0" y="0" width="128" height="12" fill="#000000" />
<rect x="0" y="12" width="8" height="116" fill="#000000" />
<rect x="8" y="12" width="16" height="8" fill="#FF0000" />
<rect x="24" y="12" width="4" height="116" fill="#000000" />
<rect x="28" y="12" width="16" height="8" fill="#FF0000" />
<rect x="44" y="12" width="4" height="104" fill="#000000" />
<rect x="48" y="12" width="16" height="8" fill="#FF0000" />
<rect x="64" y="12" width="4" height="76" fill="#000000" />
<rect x="68" y="12" width="16" height="8" fill="#FF0000" />
<rect x="84" y="12" width="4" height="116" fill="#000000" />
<rect x="88" y="12" width="16" height="8" fill="#FF0000" />
<rect x="104" y="12" width="4" height="116" fill="#000000" />
<rect x="108" y="12" width="16" height="8" fill="#FF0000" />
<rect x="124" y="12" width="4" height="116" fill="#000000" />
<rect x="8" y="20" width="16" height="4" fill="#000000" />
<rect x="28" y="20" width="16" height="4" fill="#000000" />
<rect x="48" y="20" width="16" height="4" fill="#000000" />
<rect x="68" y="20" width="16" height="4" fill="#000000" />
<rect x="88" y="20" width="16" height="4" fill="#000000" />
<rect x="108" y="20" width="16" height="4" fill="#000000" />
<rect x="8" y="24" width="16" height="8" fill="#FFA500" />
<rect x="28" y="24" width="16" height="8" fill="#FFA500" />
<rect x="48" y="24" width="16" height="8" fill="#FFA500" />
<rect x="68" y="24" width="16" height="8" fill="#FFA500" />
<rect x="88" y="24" width="16" height="8" fill="#FFA500" />
<rect x="108" y="24" width="16" height="8" fill="#FFA500" />
<rect x="8" y="32" width="16" height="4" fill="#000000" />
<rect x="28" y="32" width="16" height="4" fill="#000000" />
<rect x="48" y="32" width="16" height="4" fill="#000000" />
<rect x="68" y="32" width="16" height="4" fill="#000000" />
<rect x="88" y="32" width="16" height="4" fill="#000000" />
<rect x="108" y="32" width="16" height="4" fill="#000000" />
<rect x="8" y="36" width="16" height="8" fill="#FFFF00" />
<rect x="28" y="36" width="16" height="8" fill="#FFFF00" />
<rect x="48" y="36" width="16" height="8" fill="#FFFF00" />
<rect x="68" y="36" width="16" height="8" fill="#FFFF00" />
<rect x="88" y="36" width="16" height="8" fill="#FFFF00" />
<rect x="108" y="36" width="16" height="8" fill="#FFFF00" />
<rect x="8" y="44" width="16" height="4" fill="#000000" />
<rect x="28" y="44" width="16" height="4" fill="#000000" />
<rect x="48" y="44" width="16" height="4" fill="#000000" />
<rect x="68" y="44" width="16" height="4" fill="#000000" />
<rect x="88" y="44" width="16" height="4" fill="#000000" />
<rect x="108" y="44" width="16" height="4" fill="#000000" />
<rect x="8" y="48" width="16" height="8" fill="#00FF00" />
<rect x="28" y="48" width="16" height="8" fill="#00FF00" />
<rect x="48" y="48" width="16" height="8" fill="#00FF00" />
<rect x="68" y="48" width="16" height="8" fill="#00FF00" />
<rect x="88" y="48" width="16" height="8" fill="#00FF00" />
<rect x="108" y="48" width="16" height="8" fill="#00FF00" />
<rect x="8" y="56" width="16" height="4" fill="#000000" />
<rect x="28" y="56" width="16" height="4" fill="#000000" />
<rect x="48" y="56" width="16" height="4" fill="#000000" />
<rect x="68" y="56" width="16" height="4" fill="#000000" />
<rect x="88" y="56" width="16" height="4" fill="#000000" />
<rect x="108" y="56" width="16" height="4" fill="#000000" />
<rect x="8" y="60" width="16" height="8" fill="#0000FF" />
<rect x="28" y="60" width="16" height="8" fill="#0000FF" />
<rect x="48" y="60" width="16" height="8" fill="#0000FF" />
<rect x="68" y="60" width="16" height="8" fill="#0000FF" />
<rect x="88" y="60" width="16" height="8" fill="#0000FF" />
<rect x="108" y="60" width="16" height="8" fill="#0000FF" />
<rect x="8" y="68" width="16" height="60" fill="#000000" />
<rect x="28" y="68" width="16" height="60" fill="#000000" />
<rect x="48" y="68" width="16" height="48" fill="#000000" />
<rect x="68" y="68" width="16" height="20" fill="#000000" />
<rect x="88" y="68" width="16" height="60" fill="#000000" />
<rect x="108" y="68" width="16" height="60" fill="#000000" />
<rect x="64" y="88" width="8" height="8" fill="#FFFFFF" />
<rect x="72" y="88" width="12" height="28" fill="#000000" />
<rect x="64" y="96" width="8" height="20" fill="#000000" />
<rect x="44" y="116" width="40" height="8" fill="#4196FF" />
<rect x="44" y="124" width="40" height="4" fill="#000000" />
</svg>